<svg id="Layer_1" data-name="Layer 1" xmlns="http://www.w3.org/2000/svg" viewBox="0 0 567.02 277.08"><defs><style>.cls-1{fill:#94a7ad;}.cls-2{fill:#5abec1;}.cls-3{fill:#72d4c8;}.cls-4{fill:#a4cc00;}.cls-5{fill:#0d93bf;}.cls-6{fill:#f74423;}.cls-7{fill:#ff8300;}.cls-8{fill:#ffbf00;}.cls-9{fill:#ff7f00;}.cls-10{font-size:13px;}.cls-10,.cls-13{fill:#fff;font-family:Helvetica, Helvetica;}.cls-11{letter-spacing:-0.11em;}.cls-12{letter-spacing:-0.02em;}.cls-13{font-size:10px;}.cls-14{letter-spacing:-0.07em;}.cls-15{letter-spacing:-0.11em;}</style></defs><title>offer</title><path class="cls-1" d="M286.88,253.72a2.21,2.21,0,0,1-2.28-2.31V236.09a.63.63,0,0,1,.05-.25l.05-.08-.05-.08a.67.67,0,0,1-.05-.25v-8.51l-2.28,8.64a.62.62,0,0,1-.11.22l0,0v0c-.17.77-.83,2.5-2.05,2.67a1.53,1.53,0,0,1-.56,0,1.67,1.67,0,0,1-1.32-1.21,4.88,4.88,0,0,1,.09-2.2l.09-.2v-.16l3.06-12,.21-.75a2.9,2.9,0,0,1,1.61-1.81l4.39-1.7h0l-.67-.36a4.2,4.2,0,1,1,4.69,0l-.51.27.21,0,4.2,1.76a2.89,2.89,0,0,1,1.59,1.81l.21.75,3.08,12.09,0,0,.25,1.08a2,2,0,0,1-.55,2.14l-.06,0,.43.29a1.36,1.36,0,0,1,.4,1v8.81a1.35,1.35,0,0,1-1.35,1.35H298.2a1.35,1.35,0,0,1-1.35-1.35v-8.81a1.35,1.35,0,0,1,.83-1.25l.15,0-.09-.06a2.48,2.48,0,0,1-.86-1.42l-.22-.94-2.3-9.05v8.82a.59.59,0,0,1-.05.25l0,.08,0,.08a.56.56,0,0,1,.05.25v15.32a2.21,2.21,0,0,1-2.28,2.31,2.37,2.37,0,0,1-2.27-2.28V239.6a.41.41,0,0,0-.06-.15l0,0-.1,0h-.25l-.1,0h0a.74.74,0,0,0,0,.17l0,.15v11.7A2.37,2.37,0,0,1,286.88,253.72Zm0-1.29a1,1,0,0,0,1-.82l0-.24V239.71a.55.55,0,0,1,0-.06,1.82,1.82,0,0,1,.39-1.06,1.19,1.19,0,0,1,.19-.18,1.52,1.52,0,0,1,.7-.29h0l.57,0a.08.08,0,0,0,0,0,1.63,1.63,0,0,1,.69.27,1.55,1.55,0,0,1,.21.19,1.82,1.82,0,0,1,.39,1.06v11.73l0,.24a1,1,0,0,0,1,.82c.43,0,.91-.24.94-1V236.73h-7.17v14.66C285.92,252.19,286.39,252.45,286.83,252.43Zm12.84-4.2a.06.06,0,0,0,.06-.06v-8.81a.06.06,0,0,0-.06-.06H298.2a.06.06,0,0,0-.06.06v8.81a.06.06,0,0,0,.06.06Zm-19.82-11c.17,0,.55-.32.83-1l.13-.4-1.27-.25-.06.28a2.59,2.59,0,0,0,0,1C279.54,237.09,279.6,237.17,279.86,237.23Zm19.22,0,.23,0c.23-.1.4-.35.26-.91l-.12-.49-1.38.27.07.29a1.07,1.07,0,0,0,.68.85Zm-6-2.42v-9.22a1.69,1.69,0,0,1,.22-.62,1,1,0,0,1,1.49-.31,1.86,1.86,0,0,1,.54.63,1.16,1.16,0,0,1,.05.15l2.38,9.36,1.38-.27L296.21,223v0a2,2,0,0,0-1-1.65l-3.68-1.54-1.35,2.32,1.07,6.08a.66.66,0,0,1-.15.53l-1.1,1.3-.05,0,0,0-.06,0-.05,0-.06,0-.06,0h-.37l-.05,0-.07,0-.05,0-.05,0,0,0,0,0-1-1.3a.66.66,0,0,1-.13-.51l1-6.1-1.2-2.25-3.84,1.49a2.05,2.05,0,0,0-1,1.64v0l-2.89,11.33,1.38.27,2.44-9.24a.8.8,0,0,1,.06-.14,1.85,1.85,0,0,1,.49-.61,1,1,0,0,1,1.49.32,1.69,1.69,0,0,1,.19.61v9.2Zm-3.58-6.15.4-.47-.39-2.22-.38,2.23Zm0-8,.58-1-1.09,0Zm-.09-3.15a2.89,2.89,0,1,0-2.91-2.89A2.9,2.9,0,0,0,289.41,217.52Z" transform="translate(-16.23 -88.8)"/><path class="cls-1" d="M257.7,233.74A32.23,32.23,0,1,1,289.93,266,32.24,32.24,0,0,1,257.7,233.74Zm62.37,0a30.14,30.14,0,1,0-30.14,30.14A30.16,30.16,0,0,0,320.07,233.74Z" transform="translate(-16.23 -88.8)"/><path class="cls-2" d="M306.39,206.29l-.56-.42,1.67-2.23.56.42Zm3.33-4.46-.56-.42,1.67-2.23.56.42Zm3.34-4.46-.56-.42,1.67-2.23.56.42Zm3.33-4.46-.56-.42,1.67-2.23.56.42Zm3.34-4.46-.56-.42,1.67-2.23.56.42Zm3.33-4.46-.56-.42,1.67-2.23.56.42Zm3.34-4.46-.56-.42,1.67-2.23.56.42Zm3.33-4.46-.56-.42,1.67-2.23.56.42Zm3.34-4.46-.56-.42,1.67-2.23.56.42Zm3.33-4.46-.56-.42,1.67-2.23.56.42Zm3.34-4.46-.56-.42,1.67-2.23.56.42Zm3.33-4.46-.56-.42,1.67-2.23.56.42Zm3.34-4.46-.56-.42,1.67-2.23.56.42Zm3.33-4.46-.56-.42,1.67-2.23.56.42Zm3.33-4.46-.55-.42,1.67-2.23.56.42Zm3.34-4.46-.56-.42,1.67-2.23.56.42Zm3.34-4.46-.56-.42.92-1.22.28-.14h1.25v.7h-1.08Zm4.67-1.09v-.7h2.78v.7Zm5.57,0v-.7h2.78v.7Zm5.57,0v-.7h2.78v.7Zm5.57,0v-.7h2.78v.7Zm5.57,0v-.7h2.78v.7Zm5.57,0v-.7h2.78v.7Zm5.57,0v-.7h2.78v.7Zm5.57,0v-.7h2.78v.7Zm5.57,0v-.7h2.78v.7Zm5.57,0v-.7h2.78v.7Zm5.57,0v-.7h2.78v.7Zm5.57,0v-.7h2.78v.7Zm5.57,0v-.7H434v.7Zm5.57,0v-.7h2.78v.7Zm5.57,0v-.7h2.78v.7Zm5.57,0v-.7h2.78v.7Zm5.57,0v-.7h2.78v.7Zm5.57,0v-.7h2.78v.7Zm5.57,0v-.7h2.78v.7Zm5.57,0v-.7H473v.7Zm5.57,0v-.7h2.78v.7Zm5.57,0v-.7h2.78v.7Zm5.57,0v-.7h2.78v.7Zm5.57,0v-.7h2.78v.7Zm5.57,0v-.7h2.78v.7Zm5.57,0v-.7h2.78v.7Zm5.57,0v-.7H512v.7Zm5.57,0v-.7h2.78v.7Zm5.57,0v-.7h2.78v.7Zm5.57,0v-.7h2.78v.7Zm5.57,0v-.7h2.78v.7Zm5.57,0v-.7h2.78v.7Zm5.57,0v-.7h2.78v.7Z" transform="translate(-16.23 -88.8)"/><path class="cls-2" d="M375.61,124l4.18,10.19-4.18,10.43h88.73L470.4,134,464.34,124Z" transform="translate(-16.23 -88.8)"/><path class="cls-2" d="M464.68,124.44l-.52-.46,1.87-2.06.52.47Zm3.74-4.12-.52-.47,1.87-2.06.52.47Zm3.74-4.12-.52-.47,1.87-2.06.52.47Zm3.74-4.13-.52-.47,1.87-2.06.52.47Zm3.85-3.17v-.7h2.78v.7Zm5.57,0v-.7h2.78v.7Zm5.57,0v-.7h2.78v.7Zm5.57,0v-.7h2.78v.7Zm5.57,0v-.7h2.78v.7Zm5.57,0v-.7h2.78v.7Zm5.57,0v-.7h2.78v.7Zm5.57,0v-.7h2.78v.7Zm5.57,0v-.7h2.78v.7Zm5.57,0v-.7h2.78v.7Zm5.57,0v-.7h2.78v.7Zm5.57,0v-.7h2.78v.7Z" transform="translate(-16.23 -88.8)"/><path class="cls-2" d="M479.75,160.14v-.7h2.78v.7Zm5.57,0v-.7h2.78v.7Zm5.57,0v-.7h2.78v.7Zm5.57,0v-.7h2.78v.7Zm5.57,0v-.7h2.78v.7Zm5.57,0v-.7h2.78v.7Zm5.57,0v-.7h2.78v.7Zm5.57,0v-.7h2.78v.7Zm5.57,0v-.7h2.78v.7Zm5.57,0v-.7h2.78v.7Zm5.57,0v-.7h2.78v.7Zm5.57,0v-.7h2.78v.7Zm-63.74-1.34-1.87-2.06.52-.47,1.87,2.06Zm-3.74-4.13-1.87-2.06.52-.47,1.87,2.06Zm-3.74-4.13-1.87-2.06.52-.47,1.87,2.06ZM466,146.43l-1.87-2.06.52-.47,1.87,2.06Z" transform="translate(-16.23 -88.8)"/><path class="cls-3" d="M421.93,114.35l-.61,0a11.8,11.8,0,0,1-8.65-19.09l.32-.37.06-.16a.54.54,0,0,1,.12-.13l.11,0,.11-.12a11.76,11.76,0,0,1,7.93-3.64h.61a11.8,11.8,0,1,1,0,23.6Zm0-.9.1,0a1.42,1.42,0,0,0,.55-.64,9.5,9.5,0,0,0,.81-2.32c.12-.5.22-1.06.32-1.65l.05-.34-.93-.09c-.4,0-.81,0-1.22,0s-.79,0-1.18,0l-.33,0,.06.4c.09.59.2,1.15.32,1.65a9.31,9.31,0,0,0,.81,2.32,1.41,1.41,0,0,0,.55.64Zm1.43-.21h0a7.57,7.57,0,0,0,4.21-3.68l.07-.14-.48-.18a15.58,15.58,0,0,0-2.07-.55l-.47-.08-.05.36c-.1.61-.21,1.19-.33,1.71a10.16,10.16,0,0,1-.89,2.54Zm-2.86,0,0,0a10.45,10.45,0,0,1-.89-2.54c-.12-.52-.24-1.1-.33-1.71l-.07-.46-1,.15a15.12,15.12,0,0,0-2,.51l-.09,0,.18.33a7.63,7.63,0,0,0,4.21,3.69Zm-3.06-.77-.21-.18a10.21,10.21,0,0,1-1.49-1.87l-.5-.9-.81.37-.34.2.32.35a11,11,0,0,0,2.33,1.69Zm9,0,.67-.33a11,11,0,0,0,2.33-1.69l.1-.11L429,110l-.48-.23-.37.66a9.83,9.83,0,0,1-1.49,1.87Zm3.72-2.8.25-.28a10.82,10.82,0,0,0,2.38-6.06v-.37h-2.6l0,1.08a15.55,15.55,0,0,1-.91,4.09l-.36.84.5.24Zm-16.7-.25.56-.31.85-.39-.26-.6a15.64,15.64,0,0,1-.91-4.08l0-1.08h-2.45l-.15,0v.4a10.84,10.84,0,0,0,2.38,6.06Zm14.62-.8.24-.56a14.48,14.48,0,0,0,1-4.49l0-.61h-4.26l0,1.91c0,.75-.09,1.47-.16,2.15l-.08.7.52.08a16,16,0,0,1,2.2.58Zm-12.38-.21.2-.07a16.7,16.7,0,0,1,2.14-.54l1-.16L419,107c-.07-.69-.12-1.41-.16-2.15l0-1.91h-4.26l0,.61a14.43,14.43,0,0,0,1,4.49Zm8.18-.81.08-.66c.07-.67.12-1.37.15-2.1l0-1.87h-4.44l0,1.87c0,.73.09,1.44.15,2.1l.07.6.4,0c.4,0,.81,0,1.23,0s.85,0,1.27,0Zm-12.82-5.51.14,0h2.45l0-1A15.57,15.57,0,0,1,414.6,97l.33-.77h0c-.31-.13-.61-.27-.9-.42l-.43-.24-.15.17a10.85,10.85,0,0,0-2.38,6.06Zm7.76,0,0-1.8c0-.74.09-1.47.16-2.15l.09-.81L418,97.12a16.7,16.7,0,0,1-2.14-.54l-.12,0-.23.53a14.55,14.55,0,0,0-1,4.49V102Zm5.34,0,0-1.76c0-.73-.09-1.43-.15-2.11l-.1-.87-1,.09c-.42,0-.84,0-1.27,0s-.83,0-1.23,0l-.38,0-.09.81q-.1,1-.15,2.11l0,1.76Zm5.17,0v-.49a14.47,14.47,0,0,0-1-4.49l-.33-.74-.5.19a16,16,0,0,1-2.2.58l-.55.09.11.91c.07.69.12,1.41.16,2.15l0,1.8Zm3.5,0v-.26a10.83,10.83,0,0,0-2.38-6.06l-.38-.41-.64.38-.59.28.44,1a15.54,15.54,0,0,1,.91,4.08l0,1Zm-11.2-5.51c.41,0,.82,0,1.22,0l.9-.09,0-.13c-.09-.6-.2-1.15-.32-1.65a9.44,9.44,0,0,0-.81-2.32,1.43,1.43,0,0,0-.55-.64l-.1,0-.1,0a1.42,1.42,0,0,0-.55.64,9.25,9.25,0,0,0-.81,2.32c-.12.5-.23,1.06-.32,1.65l0,.19.31,0C420.81,96.53,421.2,96.54,421.6,96.54Zm-2.38-.15,0-.25c.1-.61.21-1.19.33-1.71a10.48,10.48,0,0,1,.89-2.54v0h0a7.57,7.57,0,0,0-4.22,3.68l-.09.16h0a15.9,15.9,0,0,0,2,.51Zm5.4-.1.5-.08a15.58,15.58,0,0,0,2.07-.54l.37-.14-.39-.63a7.25,7.25,0,0,0-3.79-3h0l0,0a10.35,10.35,0,0,1,.89,2.54c.12.53.24,1.1.33,1.71Zm-9.29-.89.4-.73a10,10,0,0,1,1.49-1.87l.18-.16-.67.32a11,11,0,0,0-2.33,1.7l-.19.21.21.12c.27.14.54.26.84.38Zm13.06-.23.58-.28.44-.26-1.07-.89a10.48,10.48,0,0,0-1.22-.77l-.71-.34.21.18a10.23,10.23,0,0,1,1.49,1.87Z" transform="translate(-16.23 -88.8)"/><path class="cls-4" d="M464.68,227.91l-.52-.47,1.87-2.06.52.47Zm3.74-4.12-.52-.47,1.87-2.06.52.47Zm3.74-4.13-.52-.47,1.87-2.06.52.47Zm3.74-4.13-.52-.47,1.87-2.06.52.47Zm3.85-3.17v-.7h2.78v.7Zm5.57,0v-.7h2.78v.7Zm5.57,0v-.7h2.78v.7Zm5.57,0v-.7h2.78v.7Zm5.57,0v-.7h2.78v.7Zm5.57,0v-.7h2.78v.7Zm5.57,0v-.7h2.78v.7Zm5.57,0v-.7h2.78v.7Zm5.57,0v-.7h2.78v.7Zm5.57,0v-.7h2.78v.7Zm5.57,0v-.7h2.78v.7Zm5.57,0v-.7h2.78v.7Z" transform="translate(-16.23 -88.8)"/><path class="cls-4" d="M479.75,263.61v-.7h2.78v.7Zm5.57,0v-.7h2.78v.7Zm5.57,0v-.7h2.78v.7Zm5.57,0v-.7h2.78v.7Zm5.57,0v-.7h2.78v.7Zm5.57,0v-.7h2.78v.7Zm5.57,0v-.7h2.78v.7Zm5.57,0v-.7h2.78v.7Zm5.57,0v-.7h2.78v.7Zm5.57,0v-.7h2.78v.7Zm5.57,0v-.7h2.78v.7Zm5.57,0v-.7h2.78v.7Zm-63.74-1.34-1.87-2.06.52-.47,1.87,2.06Zm-3.74-4.12-1.87-2.06.52-.47,1.87,2.06ZM469.78,254,467.91,252l.52-.47,1.87,2.06ZM466,249.9l-1.87-2.06.52-.47,1.87,2.06Z" transform="translate(-16.23 -88.8)"/><path class="cls-5" d="M464.68,330.17l-.52-.47,1.87-2.06.52.47Zm3.74-4.12-.52-.47,1.87-2.06.52.47Zm3.74-4.12-.52-.47,1.87-2.06.52.47Zm3.74-4.13-.52-.47,1.87-2.06.52.47Zm3.85-3.17v-.7h2.78v.7Zm5.57,0v-.7h2.78v.7Zm5.57,0v-.7h2.78v.7Zm5.57,0v-.7h2.78v.7Zm5.57,0v-.7h2.78v.7Zm5.57,0v-.7h2.78v.7Zm5.57,0v-.7h2.78v.7Zm5.57,0v-.7h2.78v.7Zm5.57,0v-.7h2.78v.7Zm5.57,0v-.7h2.78v.7Zm5.57,0v-.7h2.78v.7Zm5.57,0v-.7h2.78v.7Zm5,0v-.7h2.78v.7Zm5.57,0v-.7h2.78v.7Zm5.57,0v-.7h2.78v.7Zm5.57,0v-.7h2.78v.7Zm5.57,0v-.7h2.78v.7Zm5.57,0v-.7h2.78v.7Zm-25.37,23.9v-.7h2.78v.7Zm5.57,0v-.7h2.78v.7Zm5.57,0v-.7h2.78v.7Zm5.57,0v-.7H568v.7Zm5.57,0v-.7h2.78v.7Zm5.57,0v-.7h2.78v.7Z" transform="translate(-16.23 -88.8)"/><path class="cls-5" d="M479.75,365.88v-.7h2.78v.7Zm5.57,0v-.7h2.78v.7Zm5.57,0v-.7h2.78v.7Zm5.57,0v-.7h2.78v.7Zm5.57,0v-.7h2.78v.7Zm5.57,0v-.7h2.78v.7Zm5.57,0v-.7h2.78v.7Zm5.57,0v-.7h2.78v.7Zm5.57,0v-.7h2.78v.7Zm5.57,0v-.7h2.78v.7Zm5.57,0v-.7h2.78v.7Zm5.57,0v-.7h2.78v.7Zm-63.74-1.34-1.87-2.06.52-.47,1.87,2.06Zm-3.74-4.12-1.87-2.06.52-.47L474,360Zm-3.74-4.13-1.87-2.06.52-.47,1.87,2.06ZM466,352.17l-1.87-2.06.52-.47,1.87,2.06Z" transform="translate(-16.23 -88.8)"/><path class="cls-5" d="M360.4,338.6l-.28-.14-.92-1.23.56-.42.81,1.08h1.08v.7Zm4,0v-.7h2.78v.7Zm5.57,0v-.7h2.78v.7Zm5.57,0v-.7h2.78v.7Zm5.57,0v-.7h2.78v.7Zm5.57,0v-.7h2.78v.7Zm5.57,0v-.7h2.78v.7Zm5.57,0v-.7h2.78v.7Zm5.57,0v-.7h2.78v.7Zm5.57,0v-.7h2.78v.7Zm5.57,0v-.7h2.78v.7Zm5.57,0v-.7h2.78v.7Zm5.57,0v-.7h2.78v.7Zm5.57,0v-.7H434v.7Zm5.57,0v-.7h2.78v.7Zm5.57,0v-.7h2.78v.7Zm5.57,0v-.7h2.78v.7Zm5.57,0v-.7h2.78v.7Zm5.57,0v-.7h2.78v.7Zm5.57,0v-.7h2.78v.7Zm5.57,0v-.7H473v.7Zm5.57,0v-.7h2.78v.7Zm5.57,0v-.7h2.78v.7Zm5.57,0v-.7h2.78v.7Zm5.57,0v-.7h2.78v.7Zm5.57,0v-.7h2.78v.7Zm5.57,0v-.7h2.78v.7Zm5.57,0v-.7H512v.7Zm5.57,0v-.7h2.78v.7Zm5.57,0v-.7h2.78v.7Zm5.57,0v-.7h2.78v.7Zm5.57,0v-.7h2.78v.7Zm5.57,0v-.7h2.78v.7Zm5.57,0v-.7h2.78v.7ZM357.53,335l-1.67-2.23.56-.42,1.67,2.23Zm-3.34-4.46-1.67-2.23.55-.42,1.67,2.23Zm-3.33-4.46-1.67-2.23.56-.42,1.67,2.23Zm-3.33-4.46-1.67-2.23.56-.42,1.67,2.23Zm-3.34-4.46-1.67-2.23.56-.42,1.67,2.23Zm-3.34-4.46-1.67-2.23.56-.42,1.67,2.23Zm-3.33-4.46L335.85,306l.56-.42,1.67,2.23Zm-3.34-4.46-1.67-2.23.56-.42,1.67,2.23Zm-3.33-4.46-1.67-2.23.56-.42,1.67,2.23Zm-3.33-4.46-1.67-2.23.56-.42,1.67,2.23Zm-3.34-4.46-1.67-2.23.56-.42,1.67,2.23ZM320.84,286l-1.67-2.23.56-.42,1.67,2.23Zm-3.33-4.46-1.67-2.23.56-.42,1.67,2.23Zm-3.34-4.46-1.67-2.23.56-.42,1.67,2.23Zm-3.33-4.46-1.67-2.23.56-.42,1.67,2.23Zm-3.34-4.46-1.67-2.23.56-.42,1.67,2.23Z" transform="translate(-16.23 -88.8)"/><path class="cls-5" d="M375.61,329.76l4.18,10.19-4.18,10.43h88.73l6.06-10.68-6.06-9.95Z" transform="translate(-16.23 -88.8)"/><path class="cls-4" d="M321,237.91v-.7h2.78v.7Zm5.57,0v-.7h2.78v.7Zm5.57,0v-.7h2.78v.7Zm5.57,0v-.7h2.78v.7Zm5.57,0v-.7h2.78v.7Zm5.57,0v-.7h2.78v.7Zm5.57,0v-.7h2.78v.7Zm5.57,0v-.7h2.78v.7Zm5.57,0v-.7h2.78v.7Zm5.57,0v-.7h2.78v.7Zm5.57,0v-.7h2.78v.7Zm5.57,0v-.7H385v.7Zm5.57,0v-.7h2.78v.7Zm5.57,0v-.7h2.78v.7Zm5.57,0v-.7h2.78v.7Zm5.57,0v-.7h2.78v.7Zm5.57,0v-.7h2.78v.7Zm5.57,0v-.7h2.78v.7Zm5.57,0v-.7H424v.7Zm5.57,0v-.7h2.78v.7Zm5.57,0v-.7h2.78v.7Zm5.57,0v-.7h2.78v.7Zm5.57,0v-.7h2.78v.7Zm5.57,0v-.7h2.78v.7Zm5.57,0v-.7h2.78v.7Zm5.57,0v-.7H463v.7Zm5.57,0v-.7h2.78v.7Zm5.57,0v-.7h2.78v.7Zm5.57,0v-.7h2.78v.7Zm5.57,0v-.7h2.78v.7Zm5.57,0v-.7h2.78v.7Zm5.57,0v-.7h2.78v.7Zm5.57,0v-.7h2.78v.7Zm5.57,0v-.7h2.78v.7Zm5.57,0v-.7h2.78v.7Zm5.57,0v-.7h2.78v.7Zm5.57,0v-.7h2.78v.7Zm5.57,0v-.7h2.78v.7Zm5.57,0v-.7h2.78v.7Zm5.57,0v-.7h2.78v.7Zm5.57,0v-.7h.59v.7Zm.19-.07v-.7h2.78v.7Zm5.52-.06v-.7h2.78v.7Zm5.51,0v-.7h2.78v.7Zm5.88,0v-.7h2.78v.7Z" transform="translate(-16.23 -88.8)"/><path class="cls-4" d="M375.61,227.49l4.18,10.19-4.18,10.43h88.73l6.06-10.68-6.06-9.95Z" transform="translate(-16.23 -88.8)"/><path class="cls-5" d="M406.28,321.6c-.25,0-.46-.15-.46-.33v-1.48l0-.1,0-.06a.24.24,0,0,1,0-.17l4.1-6.24.11-.09-.06-.07a1.38,1.38,0,0,1-.22-.76v-15a1.35,1.35,0,0,1,1.34-1.36H431.9a1.35,1.35,0,0,1,1.34,1.36v15a1.39,1.39,0,0,1-.22.76l0,0h.06a.4.4,0,0,1,.17.15l3.64,6.24a.25.25,0,0,1,0,.17l0,.06,0,.08v1.49c0,.19-.2.33-.45.33Zm29.71-.67v-1H406.73v1Zm-.23-1.67-3.26-5.71H410.67L407,319.27ZM409,318.84c-.32,0-.54-.24-.42-.46l2.3-4.26a.48.48,0,0,1,.42-.21h20.3a.47.47,0,0,1,.43.23l2,4.26c.1.21-.12.44-.43.44Zm2.53-.67.26-.7h-1.74l-.38.7Zm2.7,0,.19-.7h-1.68l-.26.7Zm2.7,0,.11-.7h-1.7l-.19.7Zm2.7,0,0-.7H418l-.11.7Zm2.69,0,0-.7h-1.7l0,.7Zm2.69,0-.11-.7h-1.7l0,.7Zm2.69,0-.19-.7h-1.7l.11.7Zm2.68,0-.26-.7h-1.68l.19.7Zm2.57,0-.33-.7h-1.56l.26.7Zm-20.9-1.37.17-.45h-1.56l-.24.45Zm2.55,0,.12-.45h-1.56l-.17.45Zm2.55,0,.07-.45h-1.58l-.12.45Zm2.55,0,0-.45h-1.58l-.07.45Zm2.55,0,0-.45h-1.59l0,.45Zm2.54,0-.07-.45h-1.58l0,.45Zm2.54,0-.12-.45h-1.58l.07.45Zm2.54,0-.17-.45h-1.56l.12.45Zm2.45,0-.21-.45h-1.47l.17.45Zm-19.85-1.11.09-.36h-1.4l-.13.37Zm2.44,0,.06-.36h-1.47l-.09.36Zm2.43,0,0-.36H415.9l-.06.36Zm2.43,0v-.36h-1.49l0,.36Zm2.43,0v-.36h-1.49v.36Zm2.42,0,0-.36h-1.49v.36Zm2.42,0-.06-.36H425.5l0,.36Zm2.42,0-.08-.36h-1.47l.06.36Zm2.35,0-.11-.36h-1.39l.09.36Zm-19-.84.08-.35h-1.26l-.12.35Zm2.34,0,.06-.35h-1.37l-.08.35Zm2.34,0,0-.35h-1.38l-.06.35Zm2.33,0v-.35h-1.39l0,.35Zm2.33,0v-.35h-1.39v.35Zm2.33,0,0-.35H423v.35Zm2.33,0-.06-.35h-1.38l0,.35Zm2.32,0-.08-.35h-1.37l.06.35Zm2.28,0-.1-.35H430l.08.35Zm.5-2.12a.43.43,0,0,0,.42-.44v-15a.43.43,0,0,0-.42-.44H411.15a.43.43,0,0,0-.41.44v15a.43.43,0,0,0,.41.44Zm-19.45-1.07a.46.46,0,0,1-.46-.46v-2.08a.46.46,0,0,1,.46-.46h5.11a.46.46,0,0,1,.46.46v2.08a.46.46,0,0,1-.46.46Zm6.54,0a.46.46,0,0,1-.46-.46v-2.08a.46.46,0,0,1,.46-.46h5.11a.46.46,0,0,1,.46.46v2.08a.46.46,0,0,1-.46.46Zm6.56,0a.46.46,0,0,1-.46-.46v-2.08a.46.46,0,0,1,.46-.46h5.11a.46.46,0,0,1,.46.46v2.08a.46.46,0,0,1-.46.46Zm-8.46-.92v-1.16H412.9v1.16Zm6.55,0v-1.16h-4.18v1.16Zm6.55,0v-1.16H426v1.16Zm-17.74-3a.46.46,0,1,1,0-.93h5.14a.46.46,0,0,1,0,.93Zm6.52,0a.46.46,0,1,1,0-.93h5.14a.46.46,0,1,1,0,.93Zm6.56,0a.46.46,0,0,1,0-.93h5.23a.46.46,0,1,1,0,.93Zm-13.27-1.85a.46.46,0,0,1-.46-.46v-6.75a.46.46,0,0,1,.46-.46h18.58a.46.46,0,0,1,.46.46v6.75a.46.46,0,0,1-.46.46Zm18.12-.93v-5.82H412.72v5.82Zm-7-1.34a.46.46,0,0,1,0-.92h5.14a.46.46,0,0,1,0,.92Zm0-1.85a.46.46,0,0,1,0-.92h5.14a.46.46,0,0,1,0,.92Z" transform="translate(-16.23 -88.8)"/><path class="cls-4" d="M420.23,217a1.37,1.37,0,0,1-1.37-1.37v0l-.15,0a1.55,1.55,0,0,1-.32,0,1.6,1.6,0,0,1-1.6-1.6l0-.2h0a1.57,1.57,0,0,1-.32,0,1.6,1.6,0,0,1-1.59-1.6v-.1h0a1.62,1.62,0,0,1-.48.07,1.59,1.59,0,0,1-1.52-2.07l0-.1-.09-.06a3.4,3.4,0,0,1-.85-1.05c-.15-.27-.28-.55-.41-.84l-.08-.19-.08.09a.45.45,0,0,1-.32.17.46.46,0,0,1-.34-.12l-1.58-1.46-.39.48a.46.46,0,0,1-.31.16.46.46,0,0,1-.34-.11l-3.94-3.31a.47.47,0,0,1-.07-.64l8.47-10.84a.46.46,0,0,1,.65-.07l4.3,3.5a.46.46,0,0,1,.07.65l-.43.53,1.76,1.42a.45.45,0,0,1,.17.32v.17h0a3.9,3.9,0,0,1,.77.09,3.16,3.16,0,0,1,.56.18l.39.18.61-.27a9.73,9.73,0,0,1,3.87-.63h0l.07-.08,1.27-1.07-.53-.58a.46.46,0,0,1,0-.66l4-3.45a.46.46,0,0,1,.65,0l8.46,9.73a.47.47,0,0,1-.06.66l-4.3,3.45a.45.45,0,0,1-.33.1.47.47,0,0,1-.31-.16l-.43-.51-1.28,1a.45.45,0,0,1-.16.08h0l-.07.2a4.17,4.17,0,0,1-2.59,2.53l-.19,0,0,.29a2,2,0,0,1-.08.56,1.18,1.18,0,0,1-.71.79,1.8,1.8,0,0,1-.81.09l-.26,0,.06.15a1.55,1.55,0,0,1-.34,1.58,1.65,1.65,0,0,1-1.35.49l-.17,0v0a1.71,1.71,0,0,1,0,.19,1.35,1.35,0,0,1-.7,1.2,1.84,1.84,0,0,1-1.4.14l-.36-.13v.16a1.75,1.75,0,0,1-.18.68,1.5,1.5,0,0,1-1.37.75h-.25a.45.45,0,0,1-.32-.15l-.06-.09-.09.13A1.36,1.36,0,0,1,420.23,217Zm0-.93a.45.45,0,1,0-.45-.45A.45.45,0,0,0,420.23,216.1Zm1.33-.27.15,0c.5,0,.67-.11.74-.25a2.06,2.06,0,0,0-.09-1.39.46.46,0,0,1,.81-.41,1.32,1.32,0,0,0,1.59.58.43.43,0,0,0,.23-.4,1.6,1.6,0,0,0-.51-1,.46.46,0,0,1,.66-.65c.73.69,1.38.53,1.61.29s.35-.83-.57-1.62a.46.46,0,0,1,.49-.78c1,.43,1.53.48,1.76.39a.26.26,0,0,0,.17-.2,1.31,1.31,0,0,0,0-.5l0-.21-7.06-6-2,1.44-.12.06c-1.43.51-2.62.16-2.91-.9a3.16,3.16,0,0,1,1.44-3.07,13.37,13.37,0,0,1,1.67-1.2l.07,0-.07,0a4.38,4.38,0,0,0-1.27-.05h0l-.07.08a.51.51,0,0,1-.14.12h0l-6,7.14.26.62c.12.27.24.53.37.75a2.54,2.54,0,0,0,.6.77l.1.07,0,0a1.58,1.58,0,0,1,.89-.28,1.6,1.6,0,0,1,1.59,1.6v.1h0a1.53,1.53,0,0,1,.47-.07,1.6,1.6,0,0,1,1.6,1.59l0,.22.35-.07a1.59,1.59,0,0,1,1.59,1.59,1.18,1.18,0,0,1,0,.16v.06l.12,0h.14a1.37,1.37,0,0,1,1.37,1.37Zm-3.17-1.07a.67.67,0,1,0-.67-.67A.67.67,0,0,0,418.39,214.76ZM416.46,213a.67.67,0,1,0-.67-.67A.67.67,0,0,0,416.46,213Zm-2.11-1.61a.67.67,0,1,0-.67-.67A.67.67,0,0,0,414.36,211.4ZM429.15,209l.32-.08a3.26,3.26,0,0,0,2-2l.1-.27-6-7.16-.81,0a9.74,9.74,0,0,0-6.2,2.49c-1,.82-1.26,1.67-1.13,2.11s.42.62,1.3.41l.35-.11,2.23-1.61a.46.46,0,0,1,.57,0ZM411,207.14l6.68-8a.56.56,0,0,1,.14-.11h0l.13-.15-1.4-1.13L409.72,206Zm-2.66-.92,8.23-9.94-3.57-2.9-7.9,10.12Zm23.94-.21.95-.74-6-7.25-1,.82Zm2.41-.48,3.57-2.87-7.84-9-3.32,2.84.47.52.09.07,6.47,7.84.11.09Zm-26.78-.83a1.37,1.37,0,1,1,1.37-1.37A1.37,1.37,0,0,1,407.89,204.7Zm27.18-.68a1.37,1.37,0,1,1,1.37-1.37A1.37,1.37,0,0,1,435.06,204Zm-27.18-.24a.45.45,0,1,0-.45-.45A.45.45,0,0,0,407.89,203.78Zm27.18-.68a.45.45,0,1,0-.45-.45A.45.45,0,0,0,435.06,203.1Z" transform="translate(-16.23 -88.8)"/><path class="cls-6" d="M271.44,206.29l-1.67-2.23.56-.42,1.67,2.23Zm-3.33-4.46-1.67-2.23.56-.42,1.67,2.23Zm-3.33-4.46-1.67-2.23.56-.42,1.67,2.23Zm-3.34-4.46-1.67-2.23.56-.42L262,192.5Zm-3.33-4.46-1.67-2.23.56-.42,1.67,2.23ZM254.76,184l-1.67-2.23.56-.42,1.67,2.23Zm-3.34-4.46-1.67-2.23.56-.42,1.67,2.23Zm-3.33-4.46-1.67-2.23.56-.42,1.67,2.23Zm-3.33-4.46-1.67-2.23.56-.42,1.67,2.23Zm-3.34-4.46-1.67-2.23.56-.42,1.67,2.23Zm-3.33-4.46-1.67-2.23.56-.42,1.67,2.23Zm-3.34-4.46L233.08,155l.56-.42,1.67,2.23Zm-3.34-4.46-1.67-2.23.56-.42,1.67,2.23Zm-3.33-4.46-1.67-2.23.56-.42,1.67,2.23Zm-3.33-4.46-1.67-2.23.56-.42,1.67,2.23Zm-3.34-4.46-1.67-2.23.56-.42L222,139ZM218.07,135l-.81-1.09h-1.08v-.7h1.26l.28.14.92,1.22ZM32.46,133.88v-.7h2.78v.7Zm5.57,0v-.7h2.78v.7Zm5.57,0v-.7h2.78v.7Zm5.57,0v-.7h2.78v.7Zm5.57,0v-.7h2.78v.7Zm5.57,0v-.7h2.78v.7Zm5.57,0v-.7h2.78v.7Zm5.57,0v-.7h2.78v.7Zm5.57,0v-.7h2.78v.7Zm5.57,0v-.7h2.78v.7Zm5.57,0v-.7h2.78v.7Zm5.57,0v-.7h2.78v.7Zm5.57,0v-.7h2.78v.7Zm5.57,0v-.7h2.78v.7Zm5.57,0v-.7h2.78v.7Zm5.57,0v-.7h2.78v.7Zm5.57,0v-.7h2.78v.7Zm5.57,0v-.7h2.78v.7Zm5.57,0v-.7h2.78v.7Zm5.57,0v-.7H141v.7Zm5.57,0v-.7h2.78v.7Zm5.57,0v-.7h2.78v.7Zm5.57,0v-.7h2.78v.7Zm5.57,0v-.7h2.78v.7Zm5.57,0v-.7h2.78v.7Zm5.57,0v-.7h2.78v.7Zm5.57,0v-.7H180v.7Zm5.57,0v-.7h2.78v.7Zm5.57,0v-.7h2.78v.7Zm5.57,0v-.7h2.78v.7Zm5.57,0v-.7h2.78v.7Zm5.57,0v-.7h2.78v.7Zm5.57,0v-.7h2.78v.7Z" transform="translate(-16.23 -88.8)"/><path class="cls-6" d="M202.22,124,198,134.21l4.18,10.43H113.49L107.43,134l6.06-9.95Z" transform="translate(-16.23 -88.8)"/><path class="cls-6" d="M113.15,124.44l-1.87-2.06.52-.47,1.87,2.06Zm-3.74-4.12-1.87-2.06.52-.47,1.87,2.06Zm-3.74-4.12-1.87-2.06.52-.47,1.87,2.06Zm-3.74-4.13L100.06,110l.52-.47,1.87,2.06Zm-67.88-3.17v-.7h2.78v.7Zm5.57,0v-.7H42.4v.7Zm5.57,0v-.7H48v.7Zm5.57,0v-.7h2.78v.7Zm5.57,0v-.7h2.78v.7Zm5.57,0v-.7h2.78v.7Zm5.57,0v-.7h2.78v.7Zm5.57,0v-.7h2.78v.7Zm5.57,0v-.7h2.78v.7Zm5.57,0v-.7h2.78v.7Zm5.57,0v-.7h2.78v.7Zm5.57,0v-.7h2.78v.7Z" transform="translate(-16.23 -88.8)"/><path class="cls-6" d="M34.05,160.14v-.7h2.78v.7Zm5.57,0v-.7H42.4v.7Zm5.57,0v-.7H48v.7Zm5.57,0v-.7h2.78v.7Zm5.57,0v-.7h2.78v.7Zm5.57,0v-.7h2.78v.7Zm5.57,0v-.7h2.78v.7Zm5.57,0v-.7h2.78v.7Zm5.57,0v-.7h2.78v.7Zm5.57,0v-.7h2.78v.7Zm5.57,0v-.7h2.78v.7Zm5.57,0v-.7h2.78v.7Zm5.29-1.34-.52-.47,1.87-2.06.52.47Zm3.74-4.13-.52-.47,1.87-2.06.52.47Zm3.74-4.13-.52-.47,1.87-2.06.52.47Zm3.74-4.12-.52-.47,1.87-2.06.52.47Z" transform="translate(-16.23 -88.8)"/><path class="cls-7" d="M113.15,227.91l-1.87-2.06.52-.47,1.87,2.06Zm-3.74-4.12-1.87-2.06.52-.47,1.87,2.06Zm-3.74-4.13-1.87-2.06.52-.47,1.87,2.06Zm-3.74-4.13-1.87-2.06.52-.47,1.87,2.06Zm-67.88-3.17v-.7h2.78v.7Zm5.57,0v-.7H42.4v.7Zm5.57,0v-.7H48v.7Zm5.57,0v-.7h2.78v.7Zm5.57,0v-.7h2.78v.7Zm5.57,0v-.7h2.78v.7Zm5.57,0v-.7h2.78v.7Zm5.57,0v-.7h2.78v.7Zm5.57,0v-.7h2.78v.7Zm5.57,0v-.7h2.78v.7Zm5.57,0v-.7h2.78v.7Zm5.57,0v-.7h2.78v.7Z" transform="translate(-16.23 -88.8)"/><path class="cls-7" d="M34.05,263.61v-.7h2.78v.7Zm5.57,0v-.7H42.4v.7Zm5.57,0v-.7H48v.7Zm5.57,0v-.7h2.78v.7Zm5.57,0v-.7h2.78v.7Zm5.57,0v-.7h2.78v.7Zm5.57,0v-.7h2.78v.7Zm5.57,0v-.7h2.78v.7Zm5.57,0v-.7h2.78v.7Zm5.57,0v-.7h2.78v.7Zm5.57,0v-.7h2.78v.7Zm5.57,0v-.7h2.78v.7Zm5.29-1.34-.52-.47,1.87-2.06.52.47Zm3.74-4.12-.52-.47,1.87-2.06.52.47Zm3.74-4.13-.52-.47,1.87-2.06.52.47Zm3.74-4.13-.52-.47,1.87-2.06.52.47Z" transform="translate(-16.23 -88.8)"/><path class="cls-8" d="M34.05,365.88v-.7h2.78v.7Zm5.57,0v-.7H42.4v.7Zm5.57,0v-.7H48v.7Zm5.57,0v-.7h2.78v.7Zm5.57,0v-.7h2.78v.7Zm5.57,0v-.7h2.78v.7Zm5.57,0v-.7h2.78v.7Zm5.57,0v-.7h2.78v.7Zm5.57,0v-.7h2.78v.7Zm5.57,0v-.7h2.78v.7Zm5.57,0v-.7h2.78v.7Zm5.57,0v-.7h2.78v.7Zm5.29-1.34-.52-.47,1.87-2.06.52.47Zm3.74-4.12-.52-.47,1.87-2.06.52.47Zm3.74-4.13-.52-.47,1.87-2.06.52.47Zm3.74-4.12-.52-.47,1.87-2.06.52.47Z" transform="translate(-16.23 -88.8)"/><path class="cls-8" d="M32.46,338.6v-.7h2.78v.7Zm5.57,0v-.7h2.78v.7Zm5.57,0v-.7h2.78v.7Zm5.57,0v-.7h2.78v.7Zm5.57,0v-.7h2.78v.7Zm5.57,0v-.7h2.78v.7Zm5.57,0v-.7h2.78v.7Zm5.57,0v-.7h2.78v.7Zm5.57,0v-.7h2.78v.7Zm5.57,0v-.7h2.78v.7Zm5.57,0v-.7h2.78v.7Zm5.57,0v-.7h2.78v.7Zm5.57,0v-.7h2.78v.7Zm5.57,0v-.7h2.78v.7Zm5.57,0v-.7h2.78v.7Zm5.57,0v-.7h2.78v.7Zm5.57,0v-.7h2.78v.7Zm5.57,0v-.7h2.78v.7Zm5.57,0v-.7h2.78v.7Zm5.57,0v-.7H141v.7Zm5.57,0v-.7h2.78v.7Zm5.57,0v-.7h2.78v.7Zm5.57,0v-.7h2.78v.7Zm5.57,0v-.7h2.78v.7Zm5.57,0v-.7h2.78v.7Zm5.57,0v-.7h2.78v.7Zm5.57,0v-.7H180v.7Zm5.57,0v-.7h2.78v.7Zm5.57,0v-.7h2.78v.7Zm5.57,0v-.7h2.78v.7Zm5.57,0v-.7h2.78v.7Zm5.57,0v-.7h2.78v.7Zm5.57,0v-.7h2.78v.7Zm5.57,0v-.7h1.08l.81-1.08.56.42-.92,1.23-.28.14ZM220.3,335l-.56-.42,1.67-2.23.56.42Zm3.34-4.46-.56-.42,1.67-2.23.56.42Zm3.33-4.46-.56-.42,1.67-2.23.56.42Zm3.34-4.46-.56-.42,1.67-2.23.56.42Zm3.34-4.46-.56-.42,1.67-2.23.56.42Zm3.33-4.46-.56-.42,1.67-2.23.56.42Zm3.33-4.46-.56-.42,1.67-2.23.56.42Zm3.34-4.46-.56-.42,1.67-2.23.56.42Zm3.33-4.46-.56-.42,1.67-2.23.56.42Zm3.34-4.46-.56-.42,1.67-2.23.56.42Zm3.34-4.46-.56-.42,1.67-2.23.56.42ZM257,286l-.56-.42,1.67-2.23.55.42Zm3.33-4.46-.56-.42,1.67-2.23.56.42Zm3.34-4.46-.56-.42,1.67-2.23.56.42ZM267,272.6l-.56-.42L268.1,270l.56.42Zm3.34-4.46-.56-.42,1.67-2.23.56.42ZM27,338.66V338h2.78v.7Zm-5.48.06V338H24.3v.7Zm-5.3,0V338H19v.7Z" transform="translate(-16.23 -88.8)"/><path class="cls-8" d="M224.08,329.76l-5.14,10.19,5.14,10.43H114.89l-7.45-10.68,7.45-9.95Z" transform="translate(-16.23 -88.8)"/><path class="cls-7" d="M33.55,237.91v-.7h.59v.7Zm3.38,0v-.7h2.78v.7Zm5.57,0v-.7h2.78v.7Zm5.57,0v-.7h2.78v.7Zm5.57,0v-.7h2.78v.7Zm5.57,0v-.7H62v.7Zm5.57,0v-.7h2.78v.7Zm5.57,0v-.7h2.78v.7Zm5.57,0v-.7h2.78v.7Zm5.57,0v-.7h2.78v.7Zm5.57,0v-.7h2.78v.7Zm5.57,0v-.7h2.78v.7Zm5.57,0v-.7H101v.7Zm5.57,0v-.7h2.78v.7Zm5.57,0v-.7h2.78v.7Zm5.57,0v-.7h2.78v.7Zm5.57,0v-.7h2.78v.7Zm5.57,0v-.7h2.78v.7Zm5.57,0v-.7h2.78v.7Zm5.57,0v-.7h2.78v.7Zm5.57,0v-.7h2.78v.7Zm5.57,0v-.7h2.78v.7Zm5.57,0v-.7h2.78v.7Zm5.57,0v-.7h2.78v.7Zm5.57,0v-.7h2.78v.7Zm5.57,0v-.7h2.78v.7Zm5.57,0v-.7h2.78v.7Zm5.57,0v-.7h2.78v.7Zm5.57,0v-.7H190v.7Zm5.57,0v-.7h2.78v.7Zm5.57,0v-.7h2.78v.7Zm5.57,0v-.7h2.78v.7Zm5.57,0v-.7h2.78v.7Zm5.57,0v-.7h2.78v.7Zm5.57,0v-.7h2.78v.7Zm5.57,0v-.7H229v.7Zm5.57,0v-.7h2.78v.7Zm5.57,0v-.7h2.78v.7Zm5.57,0v-.7h2.78v.7Zm5.57,0v-.7h2.78v.7Zm5.57,0v-.7h2.78v.7Z" transform="translate(-16.23 -88.8)"/><path class="cls-7" d="M202.22,227.49,198,237.68l4.18,10.43H113.49l-6.06-10.68,6.06-9.95Z" transform="translate(-16.23 -88.8)"/><path class="cls-6" d="M149.33,113.6a2.33,2.33,0,0,1-2.43-2.21V93.3a2.32,2.32,0,0,1,2.43-2.21h4.28l0-.18a2.42,2.42,0,0,1,.73-1.33,2.94,2.94,0,0,1,2-.79,2.83,2.83,0,0,1,2.95,2.2v.1h4.23a2.32,2.32,0,0,1,2.43,2.21v18.08a2.33,2.33,0,0,1-2.43,2.21Zm14.19-.93a1.4,1.4,0,0,0,1.49-1.27V93.3A1.39,1.39,0,0,0,163.52,92H160.3v.92H162a2,2,0,0,1,2,1.89v14.79a2,2,0,0,1-2,1.89H150.82a2,2,0,0,1-2-1.89V94.83a2,2,0,0,1,2-1.89h1.79V92h-3.28a1.4,1.4,0,0,0-1.49,1.27v18.08a1.4,1.4,0,0,0,1.49,1.27ZM162,110.59a1,1,0,0,0,1.08-1V94.83a1,1,0,0,0-1.08-1H160.3V94a.82.82,0,0,1-.79.85H153.4a.82.82,0,0,1-.79-.85v-.11h-1.79a1,1,0,0,0-1.08,1v14.79a1,1,0,0,0,1.08,1Zm-9.42-2.9a.48.48,0,0,1-.31-.13l-.93-.87A.47.47,0,0,1,152,106l.56.53,1.1-1.35a.47.47,0,1,1,.72.59L153,107.51a.47.47,0,0,1-.33.17Zm3.53-.9a.47.47,0,0,1,0-.93h4.57a.47.47,0,1,1,0,.93Zm-3.53-3.55a.48.48,0,0,1-.31-.13l-.93-.87a.47.47,0,0,1,.64-.68l.56.53,1.1-1.35a.47.47,0,0,1,.72.59L153,103.07a.46.46,0,0,1-.33.17Zm3.53-.9a.47.47,0,0,1,0-.93h4.57a.47.47,0,1,1,0,.93Zm-3.49-3.21a.47.47,0,0,1-.35-.12l-.93-.87a.47.47,0,0,1,.64-.68l.56.53,1.1-1.35a.47.47,0,1,1,.72.59L153,99A.46.46,0,0,1,152.65,99.13Zm3.49-.9a.47.47,0,0,1,0-.93h4.57a.47.47,0,1,1,0,.93Zm3.23-4.32V92.11h-5.83V93.9Zm-1-2.8-.07-.23a2,2,0,0,0-1.91-1.13,2,2,0,0,0-1.35.53,1.51,1.51,0,0,0-.46.82h3.79Z" transform="translate(-16.23 -88.8)"/><path class="cls-9" d="M156.9,217.84a.46.46,0,0,1-.46-.46V215.2l-5.56,2.45a.52.52,0,0,1-.18,0,.46.46,0,0,1-.2-.89l5.92-2.6v-5.13H146a1.35,1.35,0,0,1-1.34-1.36v-15a1.35,1.35,0,0,1,1.34-1.36h9.12l0-.15a1.42,1.42,0,0,1,.42-.77,1.46,1.46,0,0,1,1-.4,1.42,1.42,0,0,1,1,.37,1.45,1.45,0,0,1,.42.79v.16h8.79a1.35,1.35,0,0,1,1.34,1.36v15a1.35,1.35,0,0,1-1.34,1.36h-9.44v5.18l5.81,2.56a.46.46,0,0,1-.19.89.52.52,0,0,1-.18,0l-5.44-2.39v2.13A.46.46,0,0,1,156.9,217.84Zm9.9-9.7a.42.42,0,0,0,.41-.44v-.28H145.63v.28a.43.43,0,0,0,.41.44Zm.41-1.64V193.93H145.63V206.5Zm-7.88-1.76a.46.46,0,0,1-.46-.46v-3.62a.46.46,0,0,1,.93,0v3.62A.46.46,0,0,1,159.33,204.75Zm-8.63,0a.46.46,0,0,1-.46-.46v-2.56a.46.46,0,0,1,.92,0v2.56A.46.46,0,0,1,150.7,204.75Zm2.87,0a.46.46,0,0,1-.46-.46v-3.58a.46.46,0,0,1,.93,0v3.58A.46.46,0,0,1,153.58,204.75Zm2.88,0a.46.46,0,0,1-.46-.46V199.6a.46.46,0,0,1,.92,0v4.68A.46.46,0,0,1,156.45,204.75Zm5.75,0a.46.46,0,0,1-.46-.46v-7.33a.46.46,0,1,1,.92,0v7.33A.46.46,0,0,1,162.2,204.75Zm2.87,0a.46.46,0,0,1-.46-.46v-8a.46.46,0,1,1,.92,0v8A.46.46,0,0,1,165.08,204.75Zm-17.25,0a.46.46,0,0,1-.46-.46V200.1a.46.46,0,0,1,.93,0v4.19A.46.46,0,0,1,147.83,204.75ZM167.21,193v-.28a.43.43,0,0,0-.41-.44H146a.43.43,0,0,0-.41.44V193Zm-10.14-1.64,0-.11a.46.46,0,0,0-.45-.29.5.5,0,0,0-.47.31l0,.09Z" transform="translate(-16.23 -88.8)"/><path class="cls-8" d="M159.63,321.11a4.41,4.41,0,0,1-1.56-.29.46.46,0,1,1,.33-.86,3.42,3.42,0,0,0,2.46,0,.46.46,0,1,1,.32.87A4.55,4.55,0,0,1,159.63,321.11Zm0-1.29a8.4,8.4,0,0,1-2.74-.47.46.46,0,1,1,.3-.87,7.25,7.25,0,0,0,4.88,0,.46.46,0,0,1,.3.87A8.23,8.23,0,0,1,159.67,319.82Zm0-1.36a8.68,8.68,0,0,1-2.87-.52.46.46,0,1,1,.31-.87,7,7,0,0,0,5,0,.46.46,0,1,1,.34.86A7.6,7.6,0,0,1,159.66,318.46Zm0-1.38a10.74,10.74,0,0,1-2.76-.4.46.46,0,1,1,.24-.89,9,9,0,0,0,5,0,.46.46,0,1,1,.26.89A9.51,9.51,0,0,1,159.63,317.08Zm-.58-1.48a.46.46,0,0,1-.46-.46v-4.27l-2.15-4.92,0-.05v-.06l-.13-.3a.46.46,0,0,1,.8-.45v0l1.75-.75a.47.47,0,0,1,.47.07l1.2,1,2.07-.54a.45.45,0,0,1,.35,0l0,0h0a.46.46,0,0,1,.24.61l-2.32,5.33v4.27a.46.46,0,0,1-.93,0v-4.37a.44.44,0,0,1,0-.18l2-4.66-1.55.4-.11,0a.48.48,0,0,1-.3-.1l-1.17-.93-1.48.64,2,4.64a.48.48,0,0,1,0,.18v4.37A.46.46,0,0,1,159.06,315.6Zm2.86-.12a.46.46,0,0,1-.24-.85,1.89,1.89,0,0,0,.84-2,.26.26,0,0,1,0-.06c.06-1.21,1.09-2.18,1.77-3.2,3.16-4.67.75-9.68-4.59-9.68s-7.75,5-4.58,9.68c.62.92,1.71,2,1.77,3.2a.49.49,0,0,1,0,.06,1.89,1.89,0,0,0,.84,2,.46.46,0,0,1,.14.64.47.47,0,0,1-.47.2.45.45,0,0,1-.17-.07,2.67,2.67,0,0,1-1.27-2.34v-.46l-.06-.34a10.61,10.61,0,0,0-1.56-2.38c-3.52-5.21-.8-11.13,5.35-11.13s8.87,5.93,5.35,11.13a10.67,10.67,0,0,0-1.56,2.4l-.05.32v.46a2.66,2.66,0,0,1-1.27,2.34A.47.47,0,0,1,161.92,315.48Zm-6.23-11.91h0a.46.46,0,0,1-.4-.52,2.08,2.08,0,0,1,.53-1.24,2.38,2.38,0,0,1,1.54-.64.46.46,0,1,1,.09.92,1.47,1.47,0,0,0-1,.37,1.15,1.15,0,0,0-.28.71A.47.47,0,0,1,155.68,303.57Zm-3.59-1.66a.44.44,0,0,1-.22-.06l-1.69-.93a.46.46,0,0,1,.44-.81l1.69.93a.46.46,0,0,1-.23.87Zm15,0a.47.47,0,0,1-.41-.24.46.46,0,0,1,.18-.63l1.76-1a.46.46,0,1,1,.44.81l-1.76,1A.49.49,0,0,1,167.12,301.89ZM164.6,299a.46.46,0,0,1-.35-.74l1.26-1.68a.46.46,0,0,1,.74.55L165,298.78A.46.46,0,0,1,164.6,299Zm-9.59-.32a.46.46,0,0,1-.39-.19l-1.14-1.53a.46.46,0,1,1,.74-.55l1.14,1.53a.46.46,0,0,1-.1.65A.49.49,0,0,1,155,298.65Zm4.81-1a.46.46,0,0,1-.46-.46V295a.46.46,0,0,1,.93,0v2.2A.46.46,0,0,1,159.82,297.67Z" transform="translate(-16.23 -88.8)"/><text class="cls-10" transform="translate(100.2 50.13)">Project MNG</text><text class="cls-10" transform="translate(118.99 153.65)">Eventy</text><text class="cls-10" transform="translate(370.79 255.92)"><tspan class="cls-11">T</tspan><tspan x="6.5" y="0">echnologie</tspan></text><text class="cls-10" transform="translate(372.79 152.65)">Networking</text><text class="cls-10" transform="translate(100.83 255.14)">Design<tspan class="cls-12" x="40.47" y="0"> </tspan><tspan x="43.85" y="0">Thinking</tspan></text><text class="cls-10" transform="translate(376.43 50.13)">Legislativa</text><text class="cls-13" transform="translate(19.32 138.87)"><tspan class="cls-12">W</tspan><tspan x="9.26" y="0">orkshopy</tspan></text><text class="cls-13" transform="translate(22.8 165.76)">Semináře</text><text class="cls-13" transform="translate(19.32 111.53)">Meetupy</text><text class="cls-13" transform="translate(19.32 10.19)">Marketing</text><text class="cls-13" transform="translate(19.32 36.96)">Strategie</text><text class="cls-13" transform="translate(19.32 62.46)">Analýza</text><text class="cls-13" transform="translate(21.76 269.15)"><tspan class="cls-14">V</tspan><tspan x="5.93" y="0">alidace</tspan></text><text class="cls-13" transform="translate(0.94 242)">Prototypování</text><text class="cls-13" transform="translate(468.8 9.19)">Finance</text><text class="cls-13" transform="translate(467.38 36.09)">GDPR</text><text class="cls-13" transform="translate(468.81 61.94)">Účetnictví</text><text class="cls-13" transform="translate(464.51 113.49)">Mentoři</text><text class="cls-13" transform="translate(463.22 139.95)"><tspan class="cls-15">T</tspan><tspan x="5" y="0">ech. Partneři</tspan></text><text class="cls-13" transform="translate(466.92 165.14)">Firmy</text><text class="cls-13" transform="translate(463.99 201.66)">Developerské <tspan x="0" y="12.21">programy</tspan></text><text class="cls-13" transform="translate(461.39 239.43)">Cloudové služby</text><text class="cls-13" transform="translate(464.12 269.42)">Konzultace</text></svg>