<svg id="Layer_1" data-name="Layer 1" xmlns="http://www.w3.org/2000/svg" viewBox="0 0 64.27 85.23"><defs><style>.cls-1,.cls-2{fill:none;stroke:#07437c;stroke-miterlimit:10;stroke-width:1.39px;}.cls-2{fill-rule:evenodd;}</style></defs><title>ai</title><g id="Machine_Learning" data-name="Machine Learning"><path class="cls-1" d="M55.27,73.21H39.16c-.89.9-1.61.17-1.61-.72h0a2.55,2.55,0,0,1,1.61-2.07H55.27a2.55,2.55,0,0,1,1.61,2.07h0C56.89,73.38,56.16,74.1,55.27,73.21Z" transform="translate(-10.38 0.09)"/><path class="cls-1" d="M53.77,78.77H40.66c-.89.42-1.61-.3-1.61-1.19h0A1.59,1.59,0,0,1,40.66,76H53.77a1.59,1.59,0,0,1,1.61,1.59h0C55.38,78.47,54.66,79.2,53.77,78.77Z" transform="translate(-10.38 0.09)"/><path class="cls-1" d="M49.68,84.34H44.75a.65.65,0,0,1-.92-.3l-1-1.65c-.42-.71.09-1.61.92-2.23h6.87c.83.62,1.34,1.52.92,2.23L50.6,84A.65.65,0,0,1,49.68,84.34Z" transform="translate(-10.38 0.09)"/><path class="cls-1" d="M56.72,34.7h0c1.3-1,3.35-2.81,4-4.47l0,0v-.07l0,0v0c1.11-2,.63-3.52.16-5l0-.06a6.7,6.7,0,0,1-2.42-1.11A1.52,1.52,0,0,1,58,22.12a1.29,1.29,0,0,1,2-.69,3,3,0,0,0,2.21.73c.49-.14.95-.65,1.36-1.52A1.34,1.34,0,0,1,65,19.85a1.46,1.46,0,0,1,.87,2,5.81,5.81,0,0,1-2.26,2.69h0A8.54,8.54,0,0,1,63.76,30h0a7.26,7.26,0,0,0,5.67-1.26,9,9,0,0,0,3.4-4h0a13,13,0,0,0-1.27-1.84h0A13,13,0,0,0,66,14.35h0a6.68,6.68,0,0,0-4.51-4.82h0c1,3.27.46,6.51-1.38,8.23A4.62,4.62,0,0,1,56.85,19a8.51,8.51,0,0,1-4.43-1.49,1.49,1.49,0,0,1-.62-1.68A1.3,1.3,0,0,1,53.73,15c2,1.26,3.66,1.46,4.61.57s1.27-3.44.41-5.75a1.53,1.53,0,0,1-.07-.79h0a14.86,14.86,0,0,0-9.33-3.59h0V24.8h0A30.44,30.44,0,0,0,56.72,34.7Z" transform="translate(-10.38 0.09)"/><path class="cls-1" d="M73.95,31.27a13.66,13.66,0,0,0-.4-3.28h0a12,12,0,0,1-3.24,3.23A10,10,0,0,1,64.73,33a7.59,7.59,0,0,1-2.5-.42h0a14.77,14.77,0,0,1-2.73,3.22l-.59.52h0a10.54,10.54,0,0,0,6.18,1.39,1.34,1.34,0,0,1,1.4,1.33,1.43,1.43,0,0,1-1.25,1.52q-.54,0-1.08,0a13.86,13.86,0,0,1-8.3-2.95l-.16-.12a24,24,0,0,1-4.34-4.34,34.2,34.2,0,0,1-2-2.87h0V69h7.82c.94-1,1.85-4.18,1.9-4.65A9.6,9.6,0,0,0,54.69,56h0a6.3,6.3,0,0,1-2.57.61h-.06a1.4,1.4,0,0,1-1.27-1.72A1.36,1.36,0,0,1,52,53.72a3.7,3.7,0,0,0,1.72-.45h0a1.3,1.3,0,0,1,.25-.2l.13-.14a3,3,0,0,0,.28-2.12,1.48,1.48,0,0,1,.67-1.51A1.29,1.29,0,0,1,57,50.36a6.56,6.56,0,0,1-.36,3.55h0a12.7,12.7,0,0,1,4.72,7.18h0a12.8,12.8,0,0,0,6-7.3h0a16.17,16.17,0,0,1-7.14-3.86,17.57,17.57,0,0,1-4.08-5.57,1.5,1.5,0,0,1,.64-1.9,1.25,1.25,0,0,1,1.72.7,14.33,14.33,0,0,0,10.34,8h0A14.25,14.25,0,0,0,72,42.14a14.86,14.86,0,0,0-.36-3.23h0A13.41,13.41,0,0,0,73.95,31.27Z" transform="translate(-10.38 0.09)"/><path class="cls-2" d="M28.12.73a15,15,0,0,0-3.93,0L23.6,3.12A12.82,12.82,0,0,0,20,4.42L18.05,3A15,15,0,0,0,15,5.5L16.12,7.7A12.85,12.85,0,0,0,14.23,11l-2.46.16A15.07,15.07,0,0,0,11.09,15l2.25,1A12.85,12.85,0,0,0,14,19.74l-1.77,1.7a15.09,15.09,0,0,0,2,3.41l2.36-.69a12.73,12.73,0,0,0,2.9,2.43L19.19,29a15,15,0,0,0,3.7,1.35l1.37-2a12.82,12.82,0,0,0,3.79,0l1.37,2A15,15,0,0,0,33.11,29l-.27-2.45a12.75,12.75,0,0,0,2.9-2.43l2.36.69a15.12,15.12,0,0,0,2-3.41l-1.78-1.7A12.78,12.78,0,0,0,39,16l2.25-1a15.13,15.13,0,0,0-.68-3.88L38.07,11A12.8,12.8,0,0,0,36.18,7.7L37.26,5.5a15.1,15.1,0,0,0-3-2.53l-2,1.45a12.84,12.84,0,0,0-3.56-1.3L28.12.73Zm-2,11.93a3,3,0,1,1-3,3,3,3,0,0,1,3-3Z" transform="translate(-10.38 0.09)"/><path class="cls-1" d="M45.16,5.49h0a16.41,16.41,0,0,0-5.58,1.24l-.36.73q.26.42.5.86l2.71.18L43,10.31a17.94,17.94,0,0,1,.81,4.59l.08,1.9L41.4,17.89h0q-.07.49-.17,1l2,1.88-.73,1.76a18,18,0,0,1-2.35,4.05L39,28.05l-2.61-.76-.76.64.29,2.69-1.46.77a16.65,16.65,0,0,0,3.34,3.3h0a30.43,30.43,0,0,0,7.38-9.9h0Z" transform="translate(-10.38 0.09)"/><path class="cls-1" d="M45.15,30.19a34.42,34.42,0,0,1-2.08,2.89,24.44,24.44,0,0,1-4.47,4.36l-.17.12a14.51,14.51,0,0,1-8.55,3q-.55,0-1.11,0a1.44,1.44,0,0,1-1.28-1.53,1.37,1.37,0,0,1,1.44-1.34,11.07,11.07,0,0,0,6.37-1.4,0,0,0,0,0,0,0l-.61-.52a15,15,0,0,1-2.82-3.24h0a7.88,7.88,0,0,1-1.45.33c-.23.06-.45.15-.69.2l-1.87.42-.51-.76a10.62,10.62,0,0,1-2.46-.84l-1.07,1.6L22,33a18,18,0,0,1-2.1-.61,13.22,13.22,0,0,0,2.35,6.39h0A14.61,14.61,0,0,0,21.85,42a14.12,14.12,0,0,0,3.27,9.12h0A14.66,14.66,0,0,0,35.78,43a1.3,1.3,0,0,1,1.77-.7,1.49,1.49,0,0,1,.66,1.91,17.66,17.66,0,0,1-4.2,5.6,16.78,16.78,0,0,1-7.36,3.88h0a12.94,12.94,0,0,0,6.13,7.34h0a12.75,12.75,0,0,1,4.86-7.22h0a6.45,6.45,0,0,1-.37-3.57,1.33,1.33,0,0,1,1.94-1.07,1.48,1.48,0,0,1,.69,1.52,2.92,2.92,0,0,0,.29,2.13l.13.14a1.33,1.33,0,0,1,.26.2h0a3.89,3.89,0,0,0,1.77.45,1.39,1.39,0,0,1,1.29,1.15,1.41,1.41,0,0,1-1.31,1.73h-.06a6.63,6.63,0,0,1-2.65-.62h0a9.58,9.58,0,0,0-4.5,8.46c.05.48,1,3.68,2,4.68h8.06V30.19Z" transform="translate(-10.38 0.09)"/></g></svg>