<?xml version="1.0" encoding="utf-8"?>
<!-- Generator: Adobe Illustrator 21.1.0, SVG Export Plug-In . SVG Version: 6.00 Build 0)  -->
<svg version="1.1" id="Layer_1" xmlns="http://www.w3.org/2000/svg" xmlns:xlink="http://www.w3.org/1999/xlink" x="0px" y="0px"
	 viewBox="0 0 85.4 57.6" style="enable-background:new 0 0 85.4 57.6;" xml:space="preserve">
<style type="text/css">
	.st0{fill:none;stroke:#56F7FF;stroke-width:1.32;stroke-miterlimit:10;}
</style>
<title>communication</title>
<g id="Speech_Bubble">
	<g id="Bubbles">
		<path id="Shadow" class="st0" d="M26.8,0.7C12.4,0.7,0.7,9.3,0.7,20c0,2.4,0.6,4.8,1.8,7c0.5,1,1.1,1.9,1.8,2.7l0,0l-2.8,12
			L13,36.4c4.4,2,9.1,3,13.9,2.9C41.3,39.3,53,30.7,53,20S41.3,0.7,26.8,0.7z"/>
		<path class="st0" d="M82.9,41.7c1.2-2.2,1.8-4.6,1.8-7c0-10.7-11.7-19.3-26.2-19.3c-0.5,0-1,0-1.5,0c0.4,1.5,0.6,3.1,0.6,4.6
			c0,11-9.6,20.3-22.7,23.1C39.2,49.5,48.2,54,58.6,54c4.8,0,9.5-1,13.9-2.9L84,56.5l-2.8-12C81.9,43.6,82.4,42.7,82.9,41.7z"/>
	</g>
</g>
</svg>
