<?xml version="1.0" encoding="utf-8"?>
<!-- Generator: Adobe Illustrator 21.1.0, SVG Export Plug-In . SVG Version: 6.00 Build 0)  -->
<svg version="1.1" id="Layer_1" xmlns="http://www.w3.org/2000/svg" xmlns:xlink="http://www.w3.org/1999/xlink" x="0px" y="0px"
	 viewBox="0 0 85.8 65.7" style="enable-background:new 0 0 85.8 65.7;" xml:space="preserve">
<style type="text/css">
	.st0{fill:none;stroke:#56F7FF;stroke-width:1.34;stroke-miterlimit:10;}
</style>
<title>data</title>
<g id="Structured_Data">
	<polygon class="st0" points="44.9,31.5 44.9,15.4 40.9,15.4 40.9,31.5 19.5,31.5 19.5,33.6 19.5,35.7 19.5,44.9 23.5,44.9 
		23.5,35.5 63.7,35.5 63.7,44.9 67.7,44.9 67.7,35.7 67.7,33.6 67.7,31.5 	"/>
	<polygon class="st0" points="69.1,42.2 69.1,47.6 61,47.6 61,42.2 49,42.2 49,65.1 85.2,65.1 85.2,42.2 	"/>
	<polygon class="st0" points="24.8,47.6 16.8,47.6 16.8,42.2 0.7,42.2 0.7,65.1 36.9,65.1 36.9,42.2 24.8,42.2 	"/>
	<polygon class="st0" points="38.2,12.7 46.3,12.7 46.3,23.5 61,23.5 61,0.7 24.8,0.7 24.8,23.5 38.2,23.5 	"/>
</g>
</svg>
