<?xml version="1.0" encoding="utf-8"?>
<!-- Generator: Adobe Illustrator 21.1.0, SVG Export Plug-In . SVG Version: 6.00 Build 0)  -->
<svg version="1.1" id="Layer_1" xmlns="http://www.w3.org/2000/svg" xmlns:xlink="http://www.w3.org/1999/xlink" x="0px" y="0px"
	 viewBox="0 0 67.9 85.7" style="enable-background:new 0 0 67.9 85.7;" xml:space="preserve">
<style type="text/css">
	.st0{fill:none;stroke:#56F7FF;stroke-width:1.4;stroke-miterlimit:10;}
</style>
<title>machine</title>
<g id="Machine">
	<path class="st0" d="M26.1,19.1c-1.5-0.1-3-0.1-4.5,0l-0.7,3.6c-1.4,0.2-2.9,0.6-4.2,1.1L14.3,21c-1.4,0.6-2.7,1.4-3.9,2.3l1.2,3.4
		c-1.1,0.9-2.2,1.9-3.1,3.1l-3.4-1.2c-0.9,1.2-1.6,2.5-2.3,3.9l2.8,2.4c-0.5,1.4-0.9,2.8-1.2,4.2l-3.6,0.7c-0.1,1.5-0.1,3,0,4.5
		l3.6,0.7C4.6,46.5,5,48,5.5,49.3l-2.8,2.4c0.6,1.4,1.4,2.7,2.3,3.9l3.4-1.2c0.9,1.1,1.9,2.2,3.1,3.1l-1.2,3.4
		c1.2,0.9,2.5,1.6,3.9,2.3l2.4-2.8c1.4,0.5,2.8,0.9,4.2,1.1l0.7,3.6c1.5,0.1,3,0.1,4.5,0l0.7-3.6c1.4-0.2,2.9-0.6,4.2-1.1l2.4,2.8
		c1.4-0.6,2.7-1.4,3.9-2.3l-1.2-3.4c1.1-0.9,2.2-1.9,3.1-3.1l3.4,1.2c0.9-1.2,1.6-2.5,2.3-3.9l-2.8-2.4c0.5-1.4,0.9-2.8,1.1-4.2
		l3.6-0.7c0.1-1.5,0.1-3,0-4.5l-3.6-0.7c-0.2-1.4-0.6-2.9-1.1-4.2l2.8-2.4c-0.6-1.4-1.4-2.7-2.3-3.9l-3.4,1.2
		c-0.9-1.1-1.9-2.2-3.1-3.1l1.2-3.4c-1.2-0.9-2.6-1.6-3.9-2.2L31,23.8c-1.4-0.5-2.8-0.9-4.2-1.1C26.8,22.6,26.1,19.1,26.1,19.1z
		 M23.8,37.5c2.6,0,4.6,2.1,4.6,4.6c0,2.6-2.1,4.6-4.6,4.6c-2.6,0-4.6-2.1-4.6-4.6c0,0,0,0,0,0C19.2,39.5,21.3,37.5,23.8,37.5z"/>
	<path class="st0" d="M52.5,55c-1.3-0.2-2.7-0.2-4,0l-0.6,2.4c-1.2,0.3-2.4,0.7-3.6,1.3l-2-1.5c-1.1,0.7-2.1,1.6-3,2.5l1.1,2.2
		c-0.8,1-1.4,2.1-1.9,3.3l-2.5,0.2c-0.4,1.3-0.7,2.6-0.7,3.9l2.3,1c0,1.3,0.3,2.5,0.7,3.8l-1.8,1.7c0.5,1.2,1.2,2.4,2,3.4l2.4-0.7
		c0.8,1,1.8,1.8,2.9,2.4l-0.3,2.5c1.2,0.6,2.4,1.1,3.7,1.3l1.4-2.1c1.3,0.2,2.6,0.2,3.8,0l1.4,2.1c1.3-0.3,2.6-0.7,3.7-1.4L57.3,81
		c1.1-0.7,2.1-1.5,2.9-2.4l2.4,0.7c0.8-1.1,1.5-2.2,2-3.4l-1.8-1.7c0.4-1.2,0.6-2.5,0.7-3.8l2.3-1c-0.1-1.3-0.3-2.6-0.7-3.9
		l-2.5-0.2c-0.5-1.2-1.1-2.3-1.9-3.3l1.1-2.2c-0.9-1-1.9-1.8-3-2.5l-2,1.5c-1.1-0.6-2.3-1.1-3.6-1.3L52.5,55L52.5,55z M50.5,67
		c1.7,0,3,1.3,3,3s-1.3,3-3,3s-3-1.3-3-3S48.9,67,50.5,67z"/>
	<path class="st0" d="M51.9,0.7c-1.3,0-2.6,0.2-3.9,0.6l-0.2,2.5c-1.2,0.4-2.4,1-3.4,1.8l-2.2-1.2c-1,0.9-1.9,1.9-2.6,3l1.4,2
		c-0.6,1.1-1.1,2.3-1.4,3.6l-2.4,0.5c-0.2,1.3-0.2,2.7-0.1,4l2.4,0.6c0.2,1.3,0.6,2.5,1.2,3.6l-1.5,2c0.7,1.1,1.5,2.2,2.5,3.1l2.2-1
		c1,0.8,2.1,1.5,3.2,2l0.1,2.5c1.3,0.4,2.6,0.7,3.9,0.8l1.1-2.2c1.3,0,2.6-0.2,3.8-0.6l1.7,1.8c1.2-0.5,2.4-1.1,3.5-1.9l-0.6-2.4
		c1-0.8,1.8-1.8,2.5-2.9l2.5,0.3c0.6-1.2,1.1-2.4,1.4-3.7l-2-1.4c0.2-1.3,0.3-2.5,0.1-3.8l2.1-1.3c-0.3-1.3-0.7-2.6-1.3-3.8
		l-2.4,0.1c-0.6-1.1-1.4-2.1-2.4-3l0.8-2.4c-1-0.8-2.2-1.5-3.4-2.1l-1.8,1.7c-1.2-0.4-2.5-0.7-3.7-0.8L51.9,0.7z M51.7,12.9
		c1.6-0.2,3.2,0.9,3.4,2.6c0.2,1.6-0.9,3.2-2.6,3.4c-1.6,0.2-3.1-0.9-3.4-2.5C48.9,14.7,50,13.2,51.7,12.9
		C51.7,12.9,51.7,12.9,51.7,12.9z"/>
</g>
</svg>
