<?xml version="1.0" encoding="utf-8"?>
<!-- Generator: Adobe Illustrator 21.1.0, SVG Export Plug-In . SVG Version: 6.00 Build 0)  -->
<svg version="1.1" id="Layer_1_1_" xmlns="http://www.w3.org/2000/svg" xmlns:xlink="http://www.w3.org/1999/xlink" x="0px" y="0px"
	 viewBox="0 0 512 512" style="enable-background:new 0 0 512 512;" xml:space="preserve">
<style type="text/css">
	.st0{fill:#56F7FF;}
</style>
<path class="st0" d="M48,504h208c22.1,0,40-17.9,40-40V320h-16v104H24V72h256v47.5h16V48c0-22.1-17.9-40-40-40H48
	C25.9,8,8,25.9,8,48v416C8,486.1,25.9,504,48,504z M280,440v24c0,13.2-10.8,24-24,24H48c-13.2,0-24-10.8-24-24v-24H280z M48,24h208
	c13.2,0,24,10.8,24,24v8H24v-8C24,34.8,34.8,24,48,24z M176,472h-48v-16h48V472z M424,112c0-4.4-3.6-8-8-8c-13.2,0-24-10.8-24-24
	c0-10.4,6.7-19.2,16-22.5V40h16v17.5c9.3,3.3,16,12.1,16,22.5h-16c0-4.4-3.6-8-8-8s-8,3.6-8,8s3.6,8,8,8c13.2,0,24,10.8,24,24
	c0,10.4-6.7,19.2-16,22.5V152h-16v-17.5c-9.3-3.3-16-12.1-16-22.5h16c0,4.4,3.6,8,8,8S424,116.4,424,112z M416,184
	c48.5,0,88-39.5,88-88S464.5,8,416,8s-88,39.5-88,88c0,9.3,1.5,18.3,4.2,26.8L248,158.4c-5.7-9.6-12.9-18.4-21.4-26
	c-23.7-21.2-55.6-31.3-87.6-27.7c-50.2,5.7-91.4,46.1-98,96.1c-4.7,35.6,7.2,70.4,32.8,95.3c2.1,2,3.9,4.3,5.6,6.7
	c-4.6,4.4-7.4,10.5-7.4,17.3c0,11.1,7.6,20.4,17.9,23.1c6.9,28.3,32.6,48.9,62.1,48.9s55.2-20.6,62.1-48.9
	c10.3-2.7,17.9-12,17.9-23.1c0-6.8-2.9-12.9-7.5-17.3c1.6-2.3,3.4-4.5,5.5-6.4c7.1-6.8,13-14.5,17.9-22.7l84.3,35.7
	c-2.7,8.4-4.2,17.4-4.2,26.8c0,34.1,19.6,63.7,48,78.3v86.7l40-20l40,20v-86.7c28.4-14.6,48-44.2,48-78.3c0-48.5-39.5-88-88-88
	c-33.5,0-62.7,18.8-77.6,46.5l-83.1-35.2c5.7-13.5,8.7-28.2,8.7-43.3c0-15-3.1-29.7-8.8-43.3l83.3-35.2
	C353.3,165.2,382.5,184,416,184z M440,475.1l-24-12l-24,12v-54.5c7.6,2.2,15.7,3.4,24,3.4s16.4-1.2,24-3.4V475.1z M416,264
	c39.7,0,72,32.3,72,72s-32.3,72-72,72s-72-32.3-72-72S376.3,264,416,264z M152,376c-20.5,0-38.4-13.3-45.1-32h90.3
	C190.4,362.7,172.5,376,152,376z M208,328h-0.6h-6.9h-96.9H96c-4.4,0-8-3.6-8-8s3.6-8,8-8h112c4.4,0,8,3.6,8,8S212.4,328,208,328z
	 M152,232c-8.8,0-16-7.2-16-16s7.2-16,16-16s16,7.2,16,16S160.8,232,152,232z M248,216c0,13-2.6,25.5-7.4,37.1l-29.4-12.5l-6.2,14.7
	l28.1,11.9c-4,6.3-8.7,12.2-14.2,17.5c-3.5,3.4-6.4,7.3-9,11.4c-0.6-0.1-1.2-0.2-1.8-0.2h-48v-49.1c13.8-3.6,24-16,24-30.9
	c0-17.6-14.4-32-32-32s-32,14.4-32,32c0,14.9,10.2,27.3,24,30.9V296H96c-0.6,0-1.2,0.1-1.9,0.2c-2.7-4.2-5.6-8.1-9.2-11.6
	c-21.9-21.4-32.2-51.2-28.1-81.7c5.7-42.8,41-77.4,83.9-82.2c27.8-3.2,54.5,5.3,75.1,23.7c6.7,6,12.4,12.9,17.1,20.4l-28.1,11.9
	l6.2,14.7l29.3-12.4C245.3,190.6,248,203.1,248,216z M416,24c39.7,0,72,32.3,72,72s-32.3,72-72,72s-72-32.3-72-72S376.3,24,416,24z
	 M416,376c22.1,0,40-17.9,40-40s-17.9-40-40-40s-40,17.9-40,40S393.9,376,416,376z M416,312c13.2,0,24,10.8,24,24s-10.8,24-24,24
	s-24-10.8-24-24S402.8,312,416,312z"/>
</svg>
