<?xml version="1.0" encoding="utf-8"?>
<!-- Generator: Adobe Illustrator 21.1.0, SVG Export Plug-In . SVG Version: 6.00 Build 0)  -->
<svg version="1.1" id="Layer_1_1_" xmlns="http://www.w3.org/2000/svg" xmlns:xlink="http://www.w3.org/1999/xlink" x="0px" y="0px"
	 viewBox="0 0 512 512" style="enable-background:new 0 0 512 512;" xml:space="preserve">
<style type="text/css">
	.st0{fill:#56F7FF;}
</style>
<path class="st0" d="M256,320c39.7,0,72-32.3,72-72s-32.3-72-72-72s-72,32.3-72,72S216.3,320,256,320z M256,192
	c30.9,0,56,25.1,56,56s-25.1,56-56,56s-56-25.1-56-56S225.1,192,256,192z M256,288c22.1,0,40-17.9,40-40s-17.9-40-40-40
	s-40,17.9-40,40S233.9,288,256,288z M256,224c13.2,0,24,10.8,24,24s-10.8,24-24,24s-24-10.8-24-24S242.8,224,256,224z M296,504
	v-83.7l144-96V248h-56v-30.2l-31.5-8.3c-0.3-0.9-0.7-1.7-1.1-2.6l16.4-28.1l-42.7-42.7L297,152.5c-0.9-0.4-1.7-0.7-2.6-1.1
	l-8.3-31.5h-60.3l-8.3,31.5c-0.9,0.3-1.7,0.7-2.6,1.1l-28.1-16.4l-42.7,42.7l16.4,28.1c-0.4,0.9-0.7,1.7-1.1,2.6l-31.5,8.3V248H72
	v76.3l144,96V504H296z M144,230.2l27.6-7.3l1.4-4c1.1-3,2.3-6,3.7-8.9l1.8-3.8l-14.4-24.7l25.2-25.2l24.7,14.4l3.8-1.8
	c2.9-1.4,5.9-2.6,8.9-3.7l4-1.4l7.3-27.7h35.7l7.3,27.6l4,1.4c3,1.1,6,2.3,8.9,3.7l3.8,1.8l24.7-14.4l25.2,25.2l-14.4,24.7l1.8,3.8
	c1.4,2.9,2.6,5.9,3.7,8.9l1.4,4l27.6,7.3v35.7l-27.6,7.3l-1.4,4c-1.1,3-2.3,6-3.7,8.9l-1.8,3.8l14.4,24.7l-25.2,25.2l-24.7-14.4
	l-3.8,1.8c-2.9,1.4-5.9,2.6-8.9,3.7l-4,1.4l-7.3,27.6h-35.7l-7.3-27.6l-4-1.4c-3-1.1-6-2.3-8.9-3.7l-3.8-1.8l-24.7,14.4l-25.2-25.2
	l14.4-24.7l-1.8-3.8c-1.4-2.9-2.6-5.9-3.7-8.9l-1.4-4l-27.6-7.3V230.2z M88,315.7V264h40v14.2l31.5,8.3c0.3,0.9,0.7,1.7,1.1,2.6
	l-16.4,28.1l42.7,42.7l28.1-16.4c0.9,0.4,1.7,0.7,2.6,1.1l8.3,31.5h60.3l8.3-31.5c0.9-0.3,1.7-0.7,2.6-1.1l28.1,16.4l42.7-42.7
	l-16.4-28.1c0.4-0.9,0.7-1.7,1.1-2.6l31.5-8.3V264h40v51.7l-144,96V488h-48v-76.3L88,315.7z M272,8c48.4,0,90.6,34.2,101.3,80.8
	c48.9-6.9,90.7,31.6,90.7,79.2c0,30.6-17,58.1-44.4,71.7l-7.1-14.3c21.9-10.9,35.6-32.9,35.6-57.4c0-35.3-28.7-64-64-64
	c-4.9,0-10,0.6-15.2,1.9l-8.6,2.1l-1.3-8.7C352.7,56.4,315.4,24,272,24c-32.8,0-62.6,18.1-77.9,47.1l-3.2,6.2l-6.6-2.4
	C179,73,173.5,72,168,72c-23.9,0-44.3,17.9-47.5,41.5l-0.8,6.2l-6.2,0.7C85.3,123.7,64,147.6,64,176c0,20.3,11.1,39.1,28.9,49
	l-7.8,14C62.2,226.3,48,202.2,48,176c0-34.5,24.4-63.9,57.7-70.5C112.4,76.9,138.2,56,168,56c5.1,0,10.2,0.6,15.2,1.9
	C202.1,27,235.5,8,272,8z M48,316.7l37.7,37.7l-11.3,11.3L56,347.3V424H40v-76.7l-18.3,18.3l-11.3-11.3L48,316.7z M56,456H40v-16h16
	V456z M40,472h16v16H40V472z M464,499.3l-37.7-37.7l11.3-11.3l18.3,18.3V392h16v76.7l18.3-18.3l11.3,11.3L464,499.3z M456,360h16v16
	h-16V360z M472,344h-16v-16h16V344z M120,152c-13.2,0-24,10.8-24,24H80c0-22.1,17.9-40,40-40V152z M232.4,72.4l-11.3-11.3
	c28.1-28.1,73.8-28.1,101.8,0l-11.3,11.3C289.8,50.6,254.2,50.6,232.4,72.4z M416,168c0-17.6-14.4-32-32-32v-16
	c26.5,0,48,21.5,48,48H416z"/>
</svg>
