<?xml version="1.0" encoding="utf-8"?>
<!-- Generator: Adobe Illustrator 21.1.0, SVG Export Plug-In . SVG Version: 6.00 Build 0)  -->
<svg version="1.1" id="Layer_1_1_" xmlns="http://www.w3.org/2000/svg" xmlns:xlink="http://www.w3.org/1999/xlink" x="0px" y="0px"
	 viewBox="0 0 512 512" style="enable-background:new 0 0 512 512;" xml:space="preserve">
<style type="text/css">
	.st0{fill:#56F7FF;}
</style>
<path class="st0" d="M375,248c-47.6,0-93,22.7-121.6,60.8L245,320l8.4,11.2C282,369.3,327.4,392,375,392s93-22.7,121.6-60.8L505,320
	l-8.4-11.2C468,270.7,422.6,248,375,248z M431,320c0,30.9-25.1,56-56,56s-56-25.1-56-56s25.1-56,56-56S431,289.1,431,320z
	 M266.2,321.6L265,320l1.2-1.6c13.5-18,31.2-32.1,51.2-41.5c-9,12-14.4,26.9-14.4,43.1s5.4,31,14.4,43.1
	C297.4,353.7,279.7,339.6,266.2,321.6z M483.8,321.6c-13.5,18-31.2,32.1-51.2,41.5c9-12,14.4-26.9,14.4-43.1s-5.4-31-14.4-43.1
	c20,9.4,37.7,23.5,51.2,41.5l1.2,1.6L483.8,321.6z M375,360c22.1,0,40-17.9,40-40s-17.9-40-40-40s-40,17.9-40,40S352.9,360,375,360z
	 M375,296c13.2,0,24,10.8,24,24s-10.8,24-24,24s-24-10.8-24-24S361.8,296,375,296z M103,322v22H87v16h16v104c0,22.1,17.9,40,40,40
	s40-17.9,40-40V360h16v-16h-16v-22c53.1-16.4,92.2-64.4,95.6-122H503V8h-48v176h-16V40h-48v144h-16V72h-48v112h-16v-80h-48v24.1
	C240.1,85.3,194.9,56,143,56C68,56,7,117,7,192C7,253.1,47.5,304.9,103,322z M471,24h16v160h-16V24z M407,56h16v128h-16V56z M343,88
	h16v96h-16V88z M167,464c0,13.2-10.8,24-24,24s-24-10.8-24-24V360h48V464z M167,344h-48v-18.2c7.8,1.4,15.8,2.2,24,2.2
	s16.2-0.9,24-2.2V344z M279,120h16v64h-16V120z M143,72c66.2,0,120,53.8,120,120s-53.8,120-120,120S23,258.2,23,192S76.8,72,143,72z
	 M143,296c57.3,0,104-46.7,104-104S200.3,88,143,88S39,134.7,39,192S85.7,296,143,296z M143,104c48.5,0,88,39.5,88,88
	s-39.5,88-88,88s-88-39.5-88-88S94.5,104,143,104z M151,200h-16v-16h16V200z M183,200h-16v-16h16V200z M215,200h-16v-16h16V200z
	 M119,200h-16v-16h16V200z M87,200H71v-16h16V200z"/>
</svg>
